# xmcd CD database file
#
# Track frame offsets:
#	150
#	3399
#	18464
#	40616
#	51541
#	54670
#	75974
#	96690
#	108960
#	133317
#	134367
#	150013
#	172110
#	189012
#	198138
#
# Disc length: 2739 seconds
#
# Revision: 1
# Processed by: cddbd v1.5.2PL0 Copyright (c) Steve Scherf et al.
# Submitted via: CDex 1.70beta2
#
DISCID=bc0ab10f
DTITLE=Artistes Variés - Sheitan
DYEAR=2006
DGENRE=Bande originale
TTITLE0=DJ Mehdi - Intro
TTITLE1=Sheitan - Bâtards De Barbares
TTITLE2=Rim'K - Bucarest
TTITLE3=Gnawa Diffusion - Ombre-Elles
TTITLE4=TTC - Dans Le Club
TTITLE5=Oxmo Puccino - Pucc' Fiction
TTITLE6=La Caution - Comme Un Sampler
TTITLE7=Nguyên Lê and Mai Lan - Découverte Maison
TTITLE8=Mai Lan - Arrêt De Souffle
TTITLE9=Hakim Chapoori and Nicolas Lefurieux - Saïgon Remix
TTITLE10=La Caution - Pilotes Automatiques
TTITLE11=Oxmo Puccino - La M-èche
TTITLE12=Mai Lan - Gentiment Je T'Immole
TTITLE13=Nguyên Lê and Mai Lan - Serpent
TTITLE14=Nguyên Lê and Mai Lan - Berceuse
EXTD=YEAR: 2006
EXTT0=
EXTT1=
EXTT2=
EXTT3=
EXTT4=
EXTT5=
EXTT6=
EXTT7=
EXTT8=
EXTT9=
EXTT10=
EXTT11=
EXTT12=
EXTT13=
EXTT14=
PLAYORDER=
